<svg width="26" height="25" viewBox="0 0 26 25" fill="none" xmlns="http://www.w3.org/2000/svg">
<path d="M1.75 1.25H6.25L7.75 14.75H21.25L24.25 5.75H10.75M10.75 21.5C10.75 22.7426 9.74264 23.75 8.5 23.75C7.25736 23.75 6.25 22.7426 6.25 21.5C6.25 20.2574 7.25736 19.25 8.5 19.25C9.74264 19.25 10.75 20.2574 10.75 21.5ZM22.75 21.5C22.75 22.7426 21.7426 23.75 20.5 23.75C19.2574 23.75 18.25 22.7426 18.25 21.5C18.25 20.2574 19.2574 19.25 20.5 19.25C21.7426 19.25 22.75 20.2574 22.75 21.5Z" stroke="#002B49" stroke-width="2" stroke-linecap="round" stroke-linejoin="round"/>
</svg>
