<svg width="350" height="36" viewBox="0 0 350 36" fill="none" xmlns="http://www.w3.org/2000/svg">
<path d="M264.655 20.6789C265.434 21.5414 266.675 22.2982 268.277 22.2982C270.142 22.2982 270.798 21.3522 270.798 20.5231C270.798 19.3156 269.485 18.9706 268.021 18.5922C266.174 18.108 264.037 17.5738 264.037 15.2256C264.037 13.3281 265.712 11.9481 268.111 11.9481C269.891 11.9481 271.282 12.5157 272.306 13.5507L271.305 14.825C270.425 13.8957 269.218 13.4783 267.971 13.4783C266.725 13.4783 265.812 14.1349 265.812 15.0976C265.812 16.1326 267.053 16.4609 268.489 16.8226C270.37 17.3234 272.562 17.9077 272.562 20.3617C272.562 22.1591 271.321 23.8284 268.216 23.8284C266.163 23.8284 264.66 23.0883 263.681 21.9977L264.666 20.6677L264.655 20.6789Z" fill="#002B49"/>
<path d="M285.856 13.6397H282.283V12.1206H291.137V13.6397H287.581V23.6281H285.856V13.6397Z" fill="#002B49"/>
<path d="M306.417 11.9314C309.85 11.9314 312.215 14.4688 312.215 17.8855C312.215 21.3021 309.85 23.8396 306.417 23.8396C302.984 23.8396 300.619 21.3021 300.619 17.8855C300.619 14.4688 302.984 11.9314 306.417 11.9314ZM306.417 13.4672C303.952 13.4672 302.399 15.348 302.399 17.8855C302.399 20.4229 303.952 22.3037 306.417 22.3037C308.882 22.3037 310.435 20.4062 310.435 17.8855C310.435 15.3647 308.849 13.4672 306.417 13.4672Z" fill="#002B49"/>
<path d="M326.806 19.1931H324.647V23.6281H322.922V12.1206H327.768C329.961 12.1206 331.463 13.534 331.463 15.6596C331.463 17.7853 330.066 18.8314 328.597 19.0262L331.547 23.6337H329.543L326.8 19.1987L326.806 19.1931ZM327.546 13.6397H324.647V17.6796H327.546C328.787 17.6796 329.682 16.8671 329.682 15.6596C329.682 14.4521 328.787 13.6397 327.546 13.6397Z" fill="#002B49"/>
<path d="M342.214 12.1206H349.943V13.6397H343.939V17.0007H349.821V18.5198H343.939V22.109H349.943V23.6281H342.214V12.1206Z" fill="#002B49"/>
<path d="M246.748 5.99955C246.748 4.6251 247.855 3.52888 249.219 3.52888C250.582 3.52888 251.689 4.6251 251.689 5.99955C251.689 7.37399 250.593 8.47021 249.219 8.47021C247.844 8.47021 246.748 7.36286 246.748 5.99955ZM247.076 5.99955C247.076 7.17367 248.034 8.14191 249.219 8.14191C250.404 8.14191 251.35 7.17367 251.35 5.99955C251.35 4.82542 250.393 3.86832 249.219 3.86832C248.045 3.86832 247.076 4.81429 247.076 5.99955ZM249.163 6.30003H248.651V7.41851H248.278V4.59171H249.43C249.92 4.59171 250.326 4.93115 250.326 5.45422C250.326 6.08301 249.764 6.29447 249.603 6.29447L250.36 7.42408H249.892L249.158 6.3056L249.163 6.30003ZM248.651 4.95894V6.00508H249.43C249.72 6.00508 249.942 5.7825 249.942 5.49314C249.942 5.17596 249.72 4.95894 249.43 4.95894H248.651Z" fill="#002B49"/>
<path d="M104.779 4.8922C104.779 6.22213 102.949 5.53769 102.158 7.83585L94.8298 29.0257C94.6128 29.7825 94.1454 30.0663 93.0325 30.0663C91.7749 30.0663 91.4187 29.7825 91.1628 29.0257L85.665 13.7232L80.3119 29.0257C80.0615 29.7825 79.6998 30.0663 78.4422 30.0663C77.1846 30.0663 76.8284 29.7825 76.5725 29.0257L68.9601 7.98053C68.0976 5.57107 66.3003 6.18318 66.3003 4.8922C66.3003 4.49711 66.6564 4.20775 67.0904 4.20775C67.7025 4.20775 68.7431 4.31348 70.0731 4.31348C71.403 4.31348 72.8776 4.20775 73.7345 4.20775C74.38 4.20775 74.8141 4.45816 74.8141 4.99792C74.8141 6.11084 72.694 5.89382 72.694 7.15141C72.694 7.57988 72.8386 8.23094 73.1948 9.27151L79.0487 25.9374L84.4352 10.3121L83.5727 7.97497C82.7102 5.60446 80.9518 6.17761 80.9518 4.88663C80.9518 4.49155 81.2745 4.20219 81.703 4.20219C82.3151 4.20219 83.2833 4.30792 84.6856 4.30792C85.9766 4.30792 87.4846 4.20219 88.3471 4.20219C89.0315 4.20219 89.3543 4.4526 89.3543 4.99236C89.3543 6.10527 87.2731 5.88825 87.2731 7.14585C87.2731 7.57432 87.4178 8.18642 87.7739 9.26595L93.5945 25.9318L99.1646 9.33829C99.5931 8.08069 99.7378 7.57988 99.7378 7.14585C99.7378 5.88825 97.473 6.10527 97.473 4.99236C97.473 4.4526 97.8291 4.20219 98.5136 4.20219C99.3761 4.20219 100.528 4.30792 101.569 4.30792C102.609 4.30792 103.433 4.20219 104.011 4.20219C104.445 4.20219 104.768 4.49155 104.768 4.88663" fill="#002B49"/>
<path d="M140.843 29.1036C140.843 29.4987 140.593 29.8215 139.947 29.8215C139.118 29.8215 138.005 29.7157 136.642 29.7157C135.279 29.7157 134.16 29.8215 133.37 29.8215C132.725 29.8215 132.474 29.4987 132.474 29.1036C132.474 27.7014 134.845 28.6028 134.845 26.1934V18.5421C134.845 18.0023 134.667 17.7519 133.871 17.7519H122.052C121.223 17.7519 121.045 18.0023 121.045 18.5421V26.1934C121.045 28.6028 123.415 27.7014 123.415 29.1036C123.415 29.4987 123.165 29.8215 122.514 29.8215C121.723 29.8215 120.577 29.7157 119.208 29.7157C117.839 29.7157 116.765 29.8215 115.942 29.8215C115.33 29.8215 115.04 29.4987 115.04 29.1036C115.04 27.7014 117.45 28.6028 117.45 26.1934V7.84142C117.45 5.43752 115.04 6.30003 115.04 4.89776C115.04 4.54163 115.33 4.17993 115.975 4.17993C116.799 4.17993 117.839 4.28566 119.208 4.28566C120.577 4.28566 121.723 4.17993 122.514 4.17993C123.159 4.17993 123.415 4.54163 123.415 4.89776C123.415 6.30003 121.045 5.43752 121.045 7.84142V15.0253C121.045 15.5984 121.223 15.8154 122.052 15.8154H133.871C134.661 15.8154 134.845 15.5984 134.845 15.0253V7.84142C134.845 5.43752 132.474 6.30003 132.474 4.89776C132.474 4.54163 132.725 4.17993 133.37 4.17993C134.16 4.17993 135.273 4.28566 136.642 4.28566C138.011 4.28566 139.118 4.17993 139.947 4.17993C140.593 4.17993 140.843 4.54163 140.843 4.89776C140.843 6.30003 138.434 5.43752 138.434 7.84142V26.1934C138.434 28.6028 140.843 27.7014 140.843 29.1036Z" fill="#002B49"/>
<path d="M177.486 29.176C177.486 29.5711 177.163 29.8215 176.696 29.8215C176.123 29.8215 175.082 29.7157 173.713 29.7157C172.344 29.7157 170.77 29.8215 169.835 29.8215C169.15 29.8215 168.755 29.5711 168.755 29.0647C168.755 27.9128 171.126 28.2411 171.126 26.9835C171.126 26.6608 171.053 26.338 170.875 25.904L168.972 21.1964C168.794 20.6956 168.61 20.5509 168.037 20.5509H159.273C158.733 20.5509 158.522 20.6956 158.338 21.1964L156.469 25.8651C156.29 26.2935 156.185 26.6163 156.185 26.9056C156.185 28.1966 158.594 27.9462 158.594 29.0591C158.594 29.5599 158.199 29.8159 157.515 29.8159C156.58 29.8159 155.651 29.7102 154.499 29.7102C153.347 29.7102 152.629 29.8159 152.056 29.8159C151.516 29.8159 151.193 29.5265 151.193 29.1315C151.193 27.8405 153.024 28.5194 153.959 26.1878L159.919 11.2469C160.603 9.48853 161.321 7.65779 161.788 6.25552C162.473 4.28009 162.578 4.06308 164.376 4.06308C166.173 4.06308 166.173 4.28009 166.852 6.25552C167.353 7.65779 168.076 9.48853 168.755 11.2469L174.72 26.0821C175.655 28.4915 177.486 27.8794 177.486 29.1704M167.787 18.108L163.658 7.80247L159.562 18.0747C159.384 18.4364 159.601 18.6144 159.885 18.6144H167.319C167.753 18.6144 167.893 18.3974 167.787 18.1136" fill="#002B49"/>
<path d="M211.647 29.0702C211.647 29.5377 211.324 29.827 210.751 29.827C210.139 29.827 208.558 29.7213 207.162 29.7213C205.871 29.7213 204.469 29.827 203.567 29.827C202.883 29.827 202.526 29.5766 202.526 29.0702C202.526 27.9573 204.43 28.2801 204.43 27.0948C204.43 26.6274 204.146 26.1989 203.784 25.7315L200.228 21.0628C199.794 20.4897 199.293 20.2727 198.754 20.3061C197.424 20.3784 196.094 20.3784 194.731 20.3061C194.013 20.2671 193.835 20.5231 193.835 21.0962V26.1989C193.835 28.6028 196.277 27.7069 196.277 29.1092C196.277 29.5043 196.027 29.827 195.382 29.827C194.591 29.827 193.373 29.7213 192.004 29.7213C190.635 29.7213 189.561 29.827 188.737 29.827C188.125 29.827 187.842 29.5043 187.842 29.1092C187.842 27.7125 190.245 28.6084 190.245 26.1989V7.84142C190.245 5.43196 187.842 6.29447 187.842 4.89776C187.842 4.54163 188.092 4.17993 188.776 4.17993C189.528 4.17993 190.68 4.28566 191.937 4.28566C193.445 4.28566 195.638 4.10759 197.502 4.10759C205.403 4.10759 209.393 7.51867 209.393 12.4044C209.393 16.1771 206.984 18.9038 203.322 19.8776L207.74 25.7315C209.644 28.2467 211.658 27.7403 211.658 29.0702M205.409 12.4044C205.409 8.34779 202.065 6.1164 197.435 6.1164C194.742 6.1164 193.84 6.51149 193.84 7.94714V17.1788C193.84 18.186 194.452 18.4364 197.468 18.4364C201.959 18.4364 205.409 17.3234 205.409 12.3988" fill="#002B49"/>
<path d="M243.114 10.39C243.114 10.8908 242.719 11.1412 242.397 11.1412C241.929 11.1412 241.64 10.8574 241.139 10.3176C238.657 7.65779 237.294 6.22213 234.384 6.22213H231.401C228.814 6.22213 228.563 6.68955 228.563 7.98053V15.2701C228.563 15.8433 228.741 16.0603 229.57 16.0603H234.345C236.643 16.0603 236.426 13.3281 237.683 13.3281C238.112 13.3281 238.44 13.5785 238.44 14.3353C238.44 15.1978 238.335 16.0937 238.335 17.0285C238.335 17.9634 238.44 18.8982 238.44 19.7218C238.44 20.4786 238.117 20.729 237.683 20.729C236.426 20.729 236.643 17.9968 234.345 17.9968H229.57C228.741 17.9968 228.563 18.2138 228.563 18.7869V26.1878C228.563 28.5917 231.473 27.6958 231.473 29.0981C231.473 29.4932 231.223 29.8159 230.572 29.8159C229.637 29.8159 228.274 29.7102 226.766 29.7102C225.363 29.7102 224.284 29.8159 223.46 29.8159C222.848 29.8159 222.559 29.4932 222.559 29.0981C222.559 27.7014 224.968 28.5973 224.968 26.1878V7.84142C224.968 5.43196 222.559 6.30003 222.559 4.93115C222.559 4.50268 222.848 4.17437 223.566 4.17437C224.139 4.17437 225.436 4.28009 226.727 4.28009H237.394C238.435 4.28009 238.474 3.52888 239.264 3.52888C239.909 3.52888 240.271 3.9963 240.916 5.28728L242.174 7.94714C242.858 9.31046 243.109 9.92257 243.109 10.39" fill="#002B49"/>
<path d="M46.4069 31.0012C45.9896 31.0457 45.5667 31.029 45.1493 30.9733C44.5539 30.8954 43.9585 30.8287 43.3909 30.6562C41.7049 30.1553 41.0594 29.2261 41.026 27.4621C41.0204 27.2061 41.0761 26.9557 41.0872 26.5829C40.8535 26.7109 40.4417 26.939 40.2136 27.0837C38.7612 28.0241 37.3423 29.0035 35.8676 29.9049C34.5878 30.6895 33.1688 30.9566 31.6664 30.7174C30.0527 30.4558 29.4406 29.5154 30.0972 28.0019C30.6147 26.8055 31.3715 25.7037 32.0114 24.5629C32.3675 23.9342 32.7459 23.3109 33.0408 22.6543C33.0965 22.5263 33.0687 22.3649 33.0297 22.198C33.013 22.1145 32.9629 22.0366 32.8962 21.9866C32.8294 21.9365 32.7459 21.9086 32.6569 21.9198C32.54 21.9309 32.4232 21.9476 32.3119 21.9866C30.7149 22.6153 29.3794 23.6448 28.1607 24.8078C26.4134 26.4716 24.7441 28.2133 23.0413 29.9216C22.752 30.211 22.5015 30.5616 22.1565 30.7674C21.7003 31.0401 21.1883 31.3183 20.6708 31.3795C19.2073 31.5465 18.445 30.645 18.9903 29.2928C19.6191 27.7459 20.3536 26.2268 21.1883 24.7744C23.9094 20.0167 27.2537 15.7153 31.1322 11.8368C32.5178 10.4512 33.9979 9.16579 35.7842 8.29771C36.9138 7.75238 38.0712 7.39625 39.3455 7.79134C40.3416 8.09739 40.6254 8.47578 40.3638 9.68329C40.2247 10.3288 39.9743 10.9464 39.6404 11.514C37.2922 15.4927 33.9034 18.275 29.4461 19.6828C28.1273 20.1002 27.2259 20.7568 26.5859 21.9587C25.7735 23.4779 24.8275 24.9302 23.9595 26.416C23.6757 26.8389 23.965 27.106 24.3045 26.7387C25.0946 26.0543 25.8792 25.3587 26.6638 24.6631C28.4167 23.1162 30.3086 21.7862 32.4955 20.9182C33.4304 20.5453 34.393 20.3172 35.4225 20.5954C36.7357 20.9515 37.192 21.547 36.6467 22.7489C36.0346 24.1011 35.1888 25.3476 34.4431 26.6441C34.1538 27.1505 33.831 27.6513 33.5917 28.1855C33.4971 28.3969 33.5083 28.7865 33.6418 28.9256C33.7642 29.0536 34.1705 29.0369 34.3708 28.9311C35.6172 28.2801 36.8748 27.6346 38.0712 26.8834C39.2787 26.1266 40.4306 25.2696 41.5212 24.3571C42.2669 23.7283 42.9513 23.0271 43.6024 22.3037C44.9546 20.7957 46.496 19.5715 48.3156 18.7146C49.4396 18.1804 50.675 17.891 51.9214 17.9244C54.5256 17.9912 55.4605 19.3211 54.3309 20.8736C52.6504 23.1829 50.3021 24.3404 47.5032 24.6631C47.2806 24.6909 46.5961 24.78 46.5906 24.3181C46.5794 23.8562 47.2361 23.7338 47.4586 23.6949C49.2838 23.3721 50.7139 22.3371 52.0828 21.1964C52.3221 20.9961 53.2068 20 52.7784 19.4936C52.2052 18.8927 51.1146 19.2432 50.8419 19.399C48.2099 20.9182 46.1454 22.9826 44.8656 25.7538C44.5651 26.3993 44.3592 27.1227 44.298 27.8294C44.1644 29.2428 45.0826 30.0719 46.496 29.8382C47.1582 29.7269 47.8482 29.5265 48.4269 29.1927C49.9571 28.3023 51.4874 27.3897 52.9175 26.3603C54.7594 25.0304 56.5066 23.5613 58.3096 22.1757C58.6991 21.8753 59.1387 21.6082 59.595 21.4301C59.9344 21.3077 60.1737 21.4913 60.2905 21.6582C60.5131 21.9365 60.2627 22.4262 59.7341 22.8491C56.7181 25.2641 53.7577 27.7681 50.3578 29.6657C49.1113 30.3612 47.8203 30.8453 46.4069 31.0012ZM28.9898 18.5198C29.2347 18.4864 29.6242 18.4141 29.9636 18.2917C32.1338 17.3902 34.1148 16.1883 35.7397 14.4911C37.0028 13.1723 38.1213 11.7366 38.6499 9.94482C38.7278 9.68885 38.6722 9.31603 38.5275 9.09345C38.2938 8.73731 37.9655 8.97103 37.6928 9.14353C37.537 9.24369 37.3923 9.35498 37.2477 9.46071C34.3596 11.5085 29.8134 17.201 28.9119 18.3473C28.8062 18.4809 28.8452 18.5421 28.9898 18.5198Z" fill="#002B49"/>
<path d="M0.0596435 20.9961C0.204322 18.7925 1.17812 16.9172 2.45241 15.1755C5.34042 11.2358 9.20223 8.61489 13.8153 7.05681C16.6309 6.10527 19.5189 5.51543 22.496 5.35406C25.3617 5.19825 28.2331 5.04244 31.0932 4.81429C32.5456 4.703 34.0035 4.5305 35.4225 4.21888C36.2906 4.02969 37.1141 3.57896 37.9043 3.14492C38.5609 2.78879 39.0506 2.24346 38.9782 1.39208C38.9337 0.880142 39.2843 0.668688 39.7128 0.557397C40.4028 0.373766 41.115 0.640865 41.5268 1.21402C41.9608 1.82612 41.933 2.37701 41.3988 3.07815C40.5753 4.16324 39.4735 4.88663 38.1825 5.27615C36.5243 5.77696 34.8326 6.08858 33.0909 6.18318C29.179 6.40576 25.256 6.58382 21.3608 7.0123C16.2247 7.57988 11.5449 9.36055 7.71093 12.9497C6.14172 14.4132 4.72832 16.0158 3.81016 17.9801C2.70838 20.3283 2.50805 22.671 3.85468 25.0081C3.91589 25.1138 4.18299 25.6147 4.01049 25.8484C3.83799 26.0821 3.23145 26.0543 3.07564 26.0376C2.04063 25.9263 1.33393 25.2808 0.877635 24.396C0.326743 23.3387 0.0262561 22.2091 0.0596435 20.9961Z" fill="#002B49"/>
<path d="M28.3165 7.25714C28.7728 7.25714 28.9286 7.76351 28.0939 8.40344C24.0819 11.3972 21.1438 15.2979 18.6397 19.5548C16.5697 23.0716 14.5164 26.5996 12.4408 30.1164C11.5616 31.6133 10.5155 32.9766 9.13546 34.0617C8.22287 34.7795 7.21012 35.2525 6.06381 35.4528C5.18461 35.6253 4.55582 35.2914 4.37775 34.991C4.11065 34.5402 4.70606 34.3455 5.01767 34.1396C6.17511 33.3772 7.16003 32.4257 7.89456 31.2683C9.95345 28.0631 11.9678 24.83 13.9766 21.5915C15.5792 19.0095 17.0705 16.3552 19.0237 14.0014C20.8377 11.8201 22.9022 9.91144 25.2449 8.31441C26.113 7.719 27.0367 7.22931 28.311 7.25157" fill="#002B49"/>
</svg>
