<svg width="156" height="81" viewBox="0 0 156 81" fill="none" xmlns="http://www.w3.org/2000/svg">
<path d="M89.5356 22.7796C89.2371 22.8123 88.9345 22.8 88.64 22.7591C88.2147 22.7019 87.7894 22.6528 87.3845 22.5342C86.1821 22.1784 85.72 21.5118 85.6955 20.2522C85.6955 20.0682 85.7323 19.8882 85.7405 19.6224C85.5728 19.7124 85.2784 19.876 85.1189 19.9823C84.0842 20.653 83.0659 21.3564 82.0148 21.9985C81.0988 22.5588 80.0886 22.751 79.0131 22.5792C77.8598 22.3952 77.4222 21.7204 77.8925 20.6407C78.2647 19.786 78.8004 19.0008 79.2625 18.1829C79.5161 17.733 79.786 17.2872 79.9987 16.8169C80.0396 16.727 80.0191 16.6084 79.9905 16.4898C79.9782 16.4284 79.9414 16.3753 79.8923 16.3425C79.8433 16.3057 79.786 16.2894 79.7206 16.2935C79.6347 16.3016 79.5529 16.3139 79.4752 16.3425C78.3342 16.7924 77.3813 17.5285 76.5102 18.3587C75.2629 19.5488 74.0687 20.792 72.8541 22.0107C72.6455 22.2193 72.4656 22.4688 72.2243 22.616C71.8971 22.8123 71.5332 23.0127 71.1651 23.0536C70.1182 23.1722 69.5742 22.5301 69.9668 21.565C70.4167 20.4608 70.9443 19.377 71.5372 18.3383C73.4798 14.9398 75.8681 11.8726 78.6409 9.09984C79.6306 8.11015 80.6857 7.19408 81.9658 6.57655C82.7714 6.18803 83.5975 5.93448 84.5054 6.21257C85.217 6.43341 85.4215 6.70333 85.2334 7.56623C85.1352 8.02836 84.9553 8.47004 84.7181 8.87491C83.0413 11.7172 80.6203 13.7007 77.4386 14.7067C76.4979 15.0052 75.8559 15.4715 75.3938 16.3303C74.813 17.414 74.1382 18.4487 73.5166 19.512C73.3121 19.8146 73.5207 20.0027 73.762 19.741C74.3264 19.2543 74.8866 18.7554 75.4469 18.2606C76.6983 17.1564 78.0479 16.2076 79.6101 15.586C80.2767 15.3201 80.9638 15.1566 81.6999 15.3569C82.6365 15.6105 82.9636 16.0358 82.5751 16.8946C82.1416 17.8598 81.5323 18.7513 81.0006 19.6756C80.792 20.0396 80.563 20.3913 80.3913 20.7757C80.3258 20.927 80.3299 21.2051 80.4281 21.3032C80.5139 21.3932 80.8084 21.3809 80.9515 21.3073C81.8431 20.8411 82.7428 20.379 83.5934 19.8473C84.4563 19.3075 85.2783 18.6941 86.0554 18.0438C86.5911 17.594 87.0778 17.095 87.5399 16.5757C88.505 15.5001 89.6092 14.6249 90.9057 14.0115C91.7113 13.6311 92.5906 13.4226 93.478 13.4471C95.3388 13.4962 96.0054 14.445 95.1957 15.5532C93.9974 17.2014 92.3207 18.0275 90.3208 18.2606C90.1613 18.2769 89.6747 18.3424 89.6665 18.0111C89.6583 17.6798 90.1245 17.594 90.284 17.5653C91.5845 17.3363 92.6069 16.5961 93.5884 15.7823C93.7602 15.6391 94.39 14.9275 94.0833 14.5677C93.6743 14.1382 92.8932 14.3877 92.701 14.4981C90.8198 15.5819 89.3475 17.0582 88.4314 19.0335C88.2188 19.4956 88.0716 20.0109 88.0266 20.518C87.9325 21.5282 88.5868 22.1212 89.597 21.9494C90.0714 21.8717 90.5621 21.7286 90.9752 21.4873C92.0671 20.8534 93.159 20.2031 94.1814 19.4629C95.4983 18.5141 96.7456 17.4631 98.0339 16.4734C98.3119 16.2608 98.6228 16.0685 98.9499 15.9418C99.1953 15.8559 99.363 15.9867 99.4489 16.1053C99.6084 16.3016 99.4284 16.6534 99.0522 16.956C96.8969 18.6818 94.7867 20.469 92.3575 21.8267C91.4659 22.3216 90.5458 22.6692 89.5356 22.7796ZM77.0991 13.8683C77.275 13.8438 77.5531 13.7906 77.7944 13.7047C79.3443 13.0627 80.7593 12.2039 81.9208 10.9892C82.8246 10.0486 83.6221 9.02214 83.9983 7.74209C84.0515 7.55806 84.0147 7.29223 83.9124 7.13683C83.7447 6.88327 83.5116 7.05094 83.3153 7.17363C83.2049 7.24316 83.1027 7.32495 82.9963 7.39856C80.9352 8.85855 77.688 12.9236 77.0419 13.7456C76.9683 13.8397 76.9928 13.8847 77.095 13.8683" fill="#002B49"/>
<path d="M56.4425 15.635C56.5447 14.0605 57.244 12.7232 58.1519 11.48C60.2172 8.66633 62.9736 6.79329 66.2657 5.68091C68.2778 5.00204 70.339 4.58081 72.4656 4.4663C74.5145 4.35588 76.5634 4.24137 78.6082 4.08188C79.6429 4.00008 80.6857 3.8774 81.6999 3.65656C82.3175 3.5216 82.9064 3.19852 83.4707 2.88771C83.9369 2.63415 84.2927 2.24564 84.2396 1.63629C84.2069 1.27231 84.4604 1.121 84.763 1.0392C85.2538 0.908336 85.765 1.09646 86.0554 1.50542C86.3662 1.94301 86.3457 2.33561 85.9654 2.83863C85.3765 3.61566 84.5872 4.13095 83.667 4.40905C82.4851 4.76893 81.2787 4.98568 80.0314 5.05929C77.2382 5.21879 74.4368 5.34557 71.6558 5.65229C67.9875 6.05716 64.6462 7.32903 61.9062 9.89322C60.7856 10.9402 59.7755 12.0812 59.1171 13.488C58.3319 15.1647 58.1887 16.8374 59.1498 18.5059C59.1948 18.5836 59.3829 18.9394 59.2602 19.103C59.1375 19.2707 58.704 19.2503 58.5895 19.238C57.8493 19.1603 57.3463 18.6982 57.0191 18.0643C56.6265 17.3077 56.4098 16.4979 56.4384 15.6309" fill="#002B49"/>
<path d="M76.6165 5.82406C76.9437 5.82406 77.0541 6.18394 76.4571 6.64198C73.5943 8.78085 71.4964 11.5659 69.7051 14.6045C68.2247 17.1155 66.7606 19.6347 65.2801 22.1457C64.6503 23.2131 63.906 24.1905 62.9163 24.9634C62.2661 25.4746 61.5422 25.8141 60.7243 25.9572C60.0986 26.0799 59.6447 25.8427 59.522 25.626C59.3338 25.3029 59.7551 25.1638 59.98 25.0166C60.8061 24.4727 61.5095 23.7897 62.0371 22.9677C63.5052 20.6775 64.9448 18.3669 66.3802 16.0563C67.5253 14.2119 68.5886 12.3184 69.9832 10.6375C71.2755 9.07939 72.7519 7.71755 74.4286 6.57655C75.0502 6.15123 75.7086 5.79952 76.6165 5.81997" fill="#002B49"/>
<path d="M37.7202 32.2184C37.7202 33.2899 36.2439 32.7419 35.6059 34.5945L29.7005 51.6768C29.5287 52.2862 29.1484 52.5152 28.2528 52.5152C27.2385 52.5152 26.9482 52.2821 26.7478 51.6768L22.3187 39.3425L18.0042 51.6768C17.8038 52.2862 17.5134 52.5152 16.4992 52.5152C15.485 52.5152 15.1987 52.2821 14.9942 51.6768L8.85573 34.709C8.16049 32.7705 6.71277 33.2613 6.71277 32.2184C6.71277 31.8994 7.00313 31.6663 7.35075 31.6663C7.8415 31.6663 8.68396 31.7522 9.75544 31.7522C10.8269 31.7522 12.0129 31.6663 12.7081 31.6663C13.2275 31.6663 13.5751 31.8708 13.5751 32.3043C13.5751 33.1999 11.8657 33.0282 11.8657 34.0424C11.8657 34.39 11.9802 34.9094 12.2706 35.7519L16.99 49.1862L21.3331 36.5902L20.6379 34.709C19.9427 32.7991 18.5236 33.2613 18.5236 32.2184C18.5236 31.8994 18.7853 31.6663 19.1329 31.6663C19.6237 31.6663 20.4089 31.7522 21.5376 31.7522C22.5805 31.7522 23.7951 31.6663 24.4903 31.6663C25.0424 31.6663 25.3001 31.8708 25.3001 32.3043C25.3001 33.1999 23.6192 33.0282 23.6192 34.0424C23.6192 34.39 23.7337 34.8808 24.0241 35.7519L28.7149 49.1862L33.2012 35.8091C33.5488 34.799 33.6633 34.39 33.6633 34.0424C33.6633 33.0282 31.8394 33.204 31.8394 32.3043C31.8394 31.8708 32.1297 31.6663 32.6777 31.6663C33.373 31.6663 34.3013 31.7522 35.1397 31.7522C35.978 31.7522 36.6446 31.6663 37.1068 31.6663C37.4544 31.6663 37.7161 31.8994 37.7161 32.2184" fill="#002B49"/>
<path d="M66.7933 51.7341C66.7933 52.053 66.5929 52.3148 66.0694 52.3148C65.4028 52.3148 64.5072 52.2289 63.4071 52.2289C62.3069 52.2289 61.4072 52.3148 60.7692 52.3148C60.2499 52.3148 60.0454 52.053 60.0454 51.7341C60.0454 50.6053 61.9552 51.3292 61.9552 49.3907V43.2236C61.9552 42.7901 61.8121 42.5856 61.1741 42.5856H51.6494C50.9828 42.5856 50.8397 42.786 50.8397 43.2236V49.3907C50.8397 51.3292 52.7495 50.6094 52.7495 51.7341C52.7495 52.053 52.545 52.3148 52.0257 52.3148C51.3877 52.3148 50.4634 52.2289 49.3633 52.2289C48.2632 52.2289 47.3962 52.3148 46.7296 52.3148C46.2389 52.3148 46.0058 52.053 46.0058 51.7341C46.0058 50.6053 47.9442 51.3292 47.9442 49.3907V34.5945C47.9442 32.656 46.0058 33.3512 46.0058 32.2184C46.0058 31.9281 46.2389 31.6377 46.7582 31.6377C47.4248 31.6377 48.2632 31.7236 49.3633 31.7236C50.4634 31.7236 51.3918 31.6377 52.0257 31.6377C52.545 31.6377 52.7495 31.9281 52.7495 32.2184C52.7495 33.3472 50.8397 32.6519 50.8397 34.5945V40.3854C50.8397 40.8475 50.9828 41.0234 51.6494 41.0234H61.1741C61.8121 41.0234 61.9552 40.8516 61.9552 40.3854V34.5945C61.9552 32.656 60.0454 33.3512 60.0454 32.2184C60.0454 31.9281 60.2458 31.6377 60.7692 31.6377C61.4072 31.6377 62.3029 31.7236 63.4071 31.7236C64.5113 31.7236 65.4028 31.6377 66.0694 31.6377C66.5888 31.6377 66.7933 31.9281 66.7933 32.2184C66.7933 33.3472 64.8548 32.6519 64.8548 34.5945V49.3907C64.8548 51.3292 66.7933 50.6094 66.7933 51.7341Z" fill="#002B49"/>
<path d="M96.3285 51.7913C96.3285 52.1103 96.0667 52.3107 95.6905 52.3107C95.2284 52.3107 94.3859 52.2248 93.2858 52.2248C92.1857 52.2248 90.9097 52.3107 90.1613 52.3107C89.6092 52.3107 89.2943 52.1062 89.2943 51.7013C89.2943 50.773 91.2042 51.0347 91.2042 50.0246C91.2042 49.7629 91.1469 49.5011 90.9997 49.1576L89.4661 45.3624C89.3189 44.9576 89.1757 44.8431 88.7136 44.8431H81.6468C81.2133 44.8431 81.0415 44.9576 80.8943 45.3624L79.3893 49.1249C79.2462 49.4725 79.1603 49.7301 79.1603 49.9633C79.1603 51.0061 81.0988 50.8016 81.0988 51.7013C81.0988 52.1062 80.7798 52.3107 80.2277 52.3107C79.4752 52.3107 78.7227 52.2248 77.7984 52.2248C76.8742 52.2248 76.2935 52.3107 75.8273 52.3107C75.3938 52.3107 75.132 52.0776 75.132 51.7586C75.132 50.7157 76.6084 51.2678 77.3649 49.3825L82.1702 37.3386C82.7223 35.9195 83.299 34.4432 83.6752 33.3144C84.2273 31.7236 84.3132 31.5477 85.7609 31.5477C87.2086 31.5477 87.2086 31.7195 87.7566 33.3144C88.1615 34.4432 88.7422 35.9195 89.2903 37.3386L94.0956 49.2966C94.848 51.2351 96.3244 50.7444 96.3244 51.7872M88.5091 42.8678L85.1802 34.5577L81.8799 42.8391C81.7367 43.1295 81.9085 43.2726 82.1416 43.2726H88.1329C88.4805 43.2726 88.595 43.1009 88.5091 42.8678Z" fill="#002B49"/>
<path d="M123.868 51.7054C123.868 52.0817 123.606 52.3148 123.144 52.3148C122.653 52.3148 121.377 52.2289 120.249 52.2289C119.206 52.2289 118.077 52.3148 117.353 52.3148C116.801 52.3148 116.515 52.1103 116.515 51.7054C116.515 50.8098 118.048 51.0674 118.048 50.1146C118.048 49.7383 117.815 49.3907 117.525 49.0145L114.658 45.2479C114.311 44.7858 113.906 44.6099 113.472 44.6386C112.401 44.6958 111.329 44.6958 110.229 44.6386C109.648 44.6099 109.505 44.8144 109.505 45.2766V49.3866C109.505 51.3251 111.472 50.6053 111.472 51.7341C111.472 52.053 111.268 52.3148 110.748 52.3148C110.11 52.3148 109.129 52.2289 108.029 52.2289C106.929 52.2289 106.058 52.3148 105.395 52.3148C104.904 52.3148 104.671 52.053 104.671 51.7341C104.671 50.6053 106.61 51.3292 106.61 49.3866V34.5904C106.61 32.6519 104.671 33.3472 104.671 32.2143C104.671 31.924 104.876 31.6336 105.424 31.6336C106.029 31.6336 106.957 31.7195 107.972 31.7195C109.186 31.7195 110.953 31.5764 112.458 31.5764C118.83 31.5764 122.044 34.3246 122.044 38.2629C122.044 41.3055 120.105 43.5058 117.149 44.2869L120.711 49.0063C122.244 51.0347 123.868 50.6258 123.868 51.6972M118.83 38.2629C118.83 34.9912 116.134 33.1958 112.401 33.1958C110.229 33.1958 109.505 33.5148 109.505 34.6722V42.1112C109.505 42.9209 109.996 43.1254 112.429 43.1254C116.049 43.1254 118.83 42.2298 118.83 38.2588" fill="#002B49"/>
<path d="M149.232 36.6475C149.232 37.0523 148.913 37.2527 148.655 37.2527C148.279 37.2527 148.046 37.0237 147.641 36.5861C145.641 34.4432 144.545 33.2858 142.198 33.2858H139.793C137.707 33.2858 137.507 33.6621 137.507 34.7049V40.5817C137.507 41.0438 137.65 41.2197 138.317 41.2197H142.169C144.022 41.2197 143.846 39.0195 144.86 39.0195C145.208 39.0195 145.469 39.2239 145.469 39.8333C145.469 40.5285 145.383 41.2524 145.383 42.0049C145.383 42.7574 145.469 43.5098 145.469 44.1765C145.469 44.7858 145.208 44.9862 144.86 44.9862C143.846 44.9862 144.022 42.786 142.169 42.786H138.317C137.65 42.786 137.507 42.9618 137.507 43.424V49.3866C137.507 51.3251 139.854 50.6053 139.854 51.73C139.854 52.049 139.65 52.3107 139.13 52.3107C138.378 52.3107 137.278 52.2248 136.063 52.2248C134.934 52.2248 134.063 52.3107 133.401 52.3107C132.91 52.3107 132.677 52.049 132.677 51.73C132.677 50.6012 134.615 51.3251 134.615 49.3866V34.5904C134.615 32.6519 132.677 33.3472 132.677 32.2471C132.677 31.8994 132.91 31.6377 133.487 31.6377C133.949 31.6377 134.992 31.7236 136.035 31.7236H144.631C145.473 31.7236 145.502 31.1183 146.136 31.1183C146.655 31.1183 146.946 31.4946 147.469 32.5374L148.483 34.6804C149.035 35.7805 149.236 36.2712 149.236 36.6475" fill="#002B49"/>
<path d="M152.013 33.11C152.013 32.0017 152.904 31.1183 154.004 31.1183C155.104 31.1183 155.996 32.0017 155.996 33.11C155.996 34.2182 155.113 35.1016 154.004 35.1016C152.896 35.1016 152.013 34.2101 152.013 33.11ZM152.274 33.11C152.274 34.0588 153.043 34.8399 154.004 34.8399C154.965 34.8399 155.722 34.0588 155.722 33.11C155.722 32.1612 154.953 31.3923 154.004 31.3923C153.055 31.3923 152.274 32.153 152.274 33.11ZM153.955 33.3553H153.542V34.2591H153.24V31.9771H154.168C154.56 31.9771 154.892 32.2511 154.892 32.6724C154.892 33.1795 154.442 33.3472 154.311 33.3472L154.92 34.2591H154.544L153.951 33.3553H153.955ZM153.53 32.2593V33.1059H154.16C154.393 33.1059 154.573 32.9259 154.573 32.6928C154.573 32.4393 154.393 32.2593 154.16 32.2593H153.53Z" fill="#002B49"/>
<path d="M46.8155 68.6732C47.3839 69.3071 48.3 69.8633 49.4778 69.8633C50.8479 69.8633 51.3304 69.164 51.3304 68.5587C51.3304 67.6713 50.3653 67.4177 49.2897 67.1396C47.932 66.7838 46.3615 66.3912 46.3615 64.6654C46.3615 63.2709 47.5925 62.2566 49.3551 62.2566C50.6597 62.2566 51.6903 62.6738 52.4387 63.4344L51.7026 64.371C51.0564 63.688 50.169 63.3813 49.257 63.3813C48.345 63.3813 47.6702 63.8638 47.6702 64.5714C47.6702 65.332 48.5822 65.5733 49.6373 65.8391C51.0196 66.2072 52.6309 66.6366 52.6309 68.4401C52.6309 69.757 51.7189 70.988 49.4369 70.988C47.9279 70.988 46.8237 70.444 46.1039 69.6425L46.8278 68.6651L46.8155 68.6732Z" fill="#002B49"/>
<path d="M62.3969 63.4999H59.7714V62.3834H66.278V63.4999H63.6647V70.8448H62.3969V63.4999Z" fill="#002B49"/>
<path d="M77.508 62.2444C80.0313 62.2444 81.7694 64.1092 81.7694 66.6202C81.7694 69.1313 80.0313 70.9961 77.508 70.9961C74.9847 70.9961 73.2467 69.1313 73.2467 66.6202C73.2467 64.1092 74.9847 62.2444 77.508 62.2444ZM77.508 63.3731C75.6963 63.3731 74.5512 64.7554 74.5512 66.6202C74.5512 68.4851 75.6922 69.8674 77.508 69.8674C79.3238 69.8674 80.4607 68.4728 80.4607 66.6202C80.4607 64.7677 79.2952 63.3731 77.508 63.3731Z" fill="#002B49"/>
<path d="M92.4924 67.5854H90.9056V70.8448H89.6379V62.3875H93.1999C94.8112 62.3875 95.9154 63.4263 95.9154 64.9885C95.9154 66.5507 94.8889 67.3196 93.8093 67.4627L95.9768 70.8489H94.5045L92.4883 67.5895L92.4924 67.5854ZM93.0363 63.504H90.9056V66.473H93.0363C93.9483 66.473 94.6067 65.8759 94.6067 64.9885C94.6067 64.101 93.9483 63.504 93.0363 63.504Z" fill="#002B49"/>
<path d="M103.817 62.3834H109.497V63.4999H105.084V65.9741H109.407V67.0906H105.084V69.7284H109.497V70.8448H103.817V62.3834Z" fill="#002B49"/>
</svg>
